PathFileType	4	(X/Y/Z)	c:/Users/goper/Files/vsCode/490R/osim_files/C08/C08_Slow_02.trc
DataRate	CameraRate	NumFrames	NumMarkers	Units                	OrigDataRate	OrigDataStartFrame	OrigNumFrames
250.00	250.00	5	36	mm	250.0	1658	2652
                Frame#	Time	LPSIS			LASIS			LTH1			LTH2			LTH3			LTH4			LLFE			LMFE			LSH1			LSH2			LSH3			LSH4			LLMAL			LMMAL			LCAL			LMTP5			LTOE			LMTP1			RPSIS			RASIS			RTH1			RTH2			RTH3			RTH4			RLFE			RMFE			RSH1			RSH2			RSH3			RSH4			RLMAL			RMMAL			RCAL			RMTP1			RTOE			RMTP5		
		X1	Y1	Z1	X2	Y2	Z2	X3	Y3	Z3	X4	Y4	Z4	X5	Y5	Z5	X6	Y6	Z6	X7	Y7	Z7	X8	Y8	Z8	X9	Y9	Z9	X10	Y10	Z10	X11	Y11	Z11	X12	Y12	Z12	X13	Y13	Z13	X14	Y14	Z14	X15	Y15	Z15	X16	Y16	Z16	X17	Y17	Z17	X18	Y18	Z18	X19	Y19	Z19	X20	Y20	Z20	X21	Y21	Z21	X22	Y22	Z22	X23	Y23	Z23	X24	Y24	Z24	X25	Y25	Z25	X26	Y26	Z26	X27	Y27	Z27	X28	Y28	Z28	X29	Y29	Z29	X30	Y30	Z30	X31	Y31	Z31	X32	Y32	Z32	X33	Y33	Z33	X34	Y34	Z34	X35	Y35	Z35	X36	Y36	Z36

1658	6.62800	-1492.75854	1033.23828	184.62718	-1705.26208	997.00061	251.98746	-1681.93713	723.84772	334.19455	-1706.95105	650.69476	317.01251	-1730.39038	581.24811	308.47980	-1778.79077	681.82434	300.47049	-1748.42883	536.49713	299.35483	-1763.75183	528.28845	170.32843	-1736.92126	400.75696	309.75742	-1757.82129	358.91849	311.08441	-1793.44836	424.12997	314.02658	-1805.60413	380.02368	313.69479	-1873.34253	102.51170	265.30432	-1892.78113	123.65539	182.12779	-1822.59509	60.63660	209.78764	-2002.51111	86.74957	296.50851	-2045.01782	137.61420	242.18094	-2024.47156	107.52245	188.76627	-1489.40356	1034.14563	125.49692	-1674.88452	997.89099	13.37680	-1565.44324	744.30414	-34.54714	-1549.26892	667.92773	-14.73083	-1530.73560	591.08038	-1.72156	-1621.15247	656.59692	10.10893	-1513.19165	520.72174	15.28511	-1515.15027	517.20709	140.64311	-1432.70251	457.61960	1.32652	-1423.83704	413.87625	-2.27229	-1490.27832	438.56943	7.68503	-1474.82312	396.64566	4.85569	-1320.44177	129.80414	61.70167	-1352.31506	127.36984	148.99707	-1257.66016	118.95345	133.29750	-1458.39905	41.58866	132.96669	-1477.47668	55.29987	77.27216	-1419.37683	43.67614	19.15246
1659	6.63200	-1497.28540	1032.96924	185.15607	-1710.07471	996.52106	252.44254	-1686.94983	723.55615	333.99945	-1712.29614	650.59808	316.70029	-1735.87939	581.16553	308.09598	-1783.97278	681.90424	300.09702	-1753.93030	536.07056	299.31158	-1768.75024	528.40662	170.26570	-1741.12146	400.42294	309.66580	-1761.59424	358.45029	310.80170	-1797.85962	423.32541	313.55099	-1809.65369	379.08896	313.13147	-1874.31995	101.72449	264.75900	-1894.02917	122.23448	181.26103	-1823.13611	60.49169	209.29532	-2003.49048	84.56628	295.97549	-2046.74976	134.34087	241.13760	-2025.80017	104.17592	187.98398	-1494.05591	1033.80371	126.02689	-1679.38147	997.51038	13.71833	-1569.58936	744.04541	-34.27340	-1553.39355	667.61456	-14.54870	-1534.31274	591.11163	-2.03593	-1627.07922	657.37183	10.62068	-1517.08215	520.41779	15.37005	-1519.19250	516.64868	140.87227	-1436.26001	457.86084	1.38229	-1427.03174	414.20053	-2.25668	-1493.58826	438.49411	7.66167	-1477.85974	396.59540	4.87654	-1321.47314	130.80754	61.49292	-1353.24609	128.21152	148.79807	-1258.55310	120.58630	133.06258	-1458.54590	41.57682	133.01375	-1476.67578	54.35418	78.04025	-1419.53345	43.69284	19.07240
1660	6.63600	-1502.06409	1032.60681	185.62199	-1714.88245	996.02570	252.94405	-1691.83276	723.25000	333.68893	-1717.53418	650.42035	316.38837	-1741.23364	581.05200	307.71747	-1789.08276	681.98907	299.80426	-1759.12012	535.83990	298.92719	-1773.61230	528.38245	170.16684	-1745.17847	400.16177	309.50504	-1765.24036	357.94653	310.49173	-1802.16370	422.48245	313.01508	-1813.50281	378.11322	312.54456	-1875.01746	100.72487	264.20398	-1895.20142	120.70452	180.44026	-1823.78650	60.38467	208.64279	-2004.42749	82.35346	295.46216	-2048.00122	131.02531	240.31013	-2027.25879	101.17184	187.36501	-1498.67102	1033.47925	126.54765	-1683.87915	997.11481	14.06218	-1573.70068	743.74365	-34.00726	-1557.56616	667.30817	-14.35881	-1538.92798	590.43848	-1.52278	-1631.21521	657.00745	10.76045	-1521.07056	520.13263	15.43678	-1523.18176	516.41699	140.79025	-1439.85779	458.12582	1.44623	-1430.29919	414.54498	-2.24652	-1496.93530	438.33252	7.64247	-1480.93542	396.50571	4.88613	-1322.43311	131.93732	61.24788	-1354.20374	129.08205	148.51869	-1259.42419	122.26880	132.79958	-1458.63074	41.50862	133.07748	-1476.82776	54.28333	78.03955	-1419.69202	43.72796	18.99821
1661	6.64000	-1506.90698	1032.28491	186.11017	-1719.91443	995.56702	253.46545	-1696.66907	722.95715	333.37241	-1722.71411	650.17261	316.06012	-1746.57471	580.90497	307.32877	-1794.23340	681.96661	299.51175	-1764.39148	535.61749	298.57208	-1778.40955	528.34668	170.06902	-1749.20374	399.94388	309.23849	-1768.80054	357.34039	310.10397	-1806.44666	421.61688	312.46057	-1817.27136	377.14584	311.95673	-1875.86487	99.56806	263.66312	-1896.37854	119.17519	179.60011	-1824.53418	60.38612	207.99036	-2005.42383	80.10500	294.87857	-2049.35767	128.08537	239.44225	-2029.55713	98.77998	185.42178	-1503.40771	1033.13538	127.09391	-1688.50305	996.72522	14.44950	-1577.94287	743.48206	-33.73333	-1561.73474	666.99030	-14.17583	-1542.61353	590.49219	-1.98515	-1635.40161	656.65021	10.91426	-1525.09668	519.81616	15.49099	-1527.37317	516.03845	140.89561	-1443.57825	458.37457	1.50817	-1433.62842	414.91190	-2.24491	-1500.41064	438.21097	7.61324	-1484.10718	396.45477	4.88763	-1323.51453	133.02025	61.04344	-1355.20691	129.96431	148.28960	-1260.43689	123.98237	132.59309	-1458.72803	41.43970	133.15488	-1476.95007	54.21513	78.04199	-1419.86768	43.78444	18.91121
1662	6.64400	-1511.81372	1031.96204	186.63239	-1724.91821	995.04150	254.01932	-1701.58948	722.66132	333.02319	-1727.85266	649.93146	315.66953	-1751.77551	580.74146	306.94800	-1799.26624	681.87842	299.28946	-1769.54626	535.75909	297.92648	-1783.07410	528.12903	169.93179	-1753.12122	399.74542	309.56598	-1772.68811	356.95309	310.17548	-1810.63916	420.77551	311.86584	-1820.97192	376.09622	311.27744	-1876.75317	98.53763	263.11728	-1897.64844	117.64571	178.81871	-1825.47327	60.43508	207.48650	-2006.58228	77.94955	294.20676	-2050.78320	125.39064	238.57048	-2029.65271	95.31568	185.80840	-1508.13062	1032.85999	127.59760	-1692.99988	996.31293	14.75134	-1582.15015	743.12213	-33.42669	-1566.02051	666.68097	-14.03916	-1546.84387	590.10138	-1.87895	-1639.60815	656.33191	11.03237	-1529.26147	519.50684	15.54351	-1531.86487	515.62482	141.07469	-1447.29077	458.61478	1.53794	-1437.02258	415.24115	-2.18568	-1503.94348	438.03394	7.60784	-1487.38013	396.33707	4.90456	-1324.63684	134.15324	60.84296	-1356.56433	130.77000	148.21730	-1261.41968	125.80367	132.33194	-1458.80762	41.38135	133.22432	-1477.11121	54.15876	78.03925	-1420.05322	43.85331	18.84128
